HIERARCHY
ROOT mixamorig:Hips
{
	OFFSET -0.000008 104.274872 1.554316
	CHANNELS 6 Xposition Yposition Zposition Xrotation Yrotation Zrotation
	JOINT mixamorig:Spine
	{
		OFFSET -0.000005 10.181595 0.131519
		CHANNELS 6 Xposition Yposition Zposition Xrotation Yrotation Zrotation
		JOINT mixamorig:Spine1
		{
			OFFSET -0.000000 9.893959 -1.470707
			CHANNELS 6 Xposition Yposition Zposition Xrotation Yrotation Zrotation
			JOINT mixamorig:Spine2
			{
				OFFSET -0.000000 9.220757 -1.370641
				CHANNELS 6 Xposition Yposition Zposition Xrotation Yrotation Zrotation
				JOINT mixamorig:Neck
				{
					OFFSET 0.000001 16.740417 -2.049036
					CHANNELS 6 Xposition Yposition Zposition Xrotation Yrotation Zrotation
					JOINT mixamorig:Head
					{
						OFFSET 0.000000 9.617874 1.685006
						CHANNELS 6 Xposition Yposition Zposition Xrotation Yrotation Zrotation
						JOINT mixamorig:HeadTop_End
						{
							OFFSET 0.000002 22.037354 7.501101
							CHANNELS 6 Xposition Yposition Zposition Xrotation Yrotation Zrotation
							End Site
							{
								OFFSET 0.000168 2310.654297 -282.823242
							}
						}
					}
				}
				JOINT mixamorig:RightShoulder
				{
					OFFSET -4.569970 11.014908 -2.160885
					CHANNELS 6 Xposition Yposition Zposition Xrotation Yrotation Zrotation
					JOINT mixamorig:RightArm
					{
						OFFSET -10.592851 -0.524811 -2.232101
						CHANNELS 6 Xposition Yposition Zposition Xrotation Yrotation Zrotation
						JOINT mixamorig:RightForeArm
						{
							OFFSET -27.841511 0.000031 -0.000004
							CHANNELS 6 Xposition Yposition Zposition Xrotation Yrotation Zrotation
							JOINT mixamorig:RightHand
							{
								OFFSET -28.328831 -0.000015 0.000015
								CHANNELS 6 Xposition Yposition Zposition Xrotation Yrotation Zrotation
								JOINT mixamorig:RightHandThumb1
								{
									OFFSET -2.464806 -1.573990 2.681852
									CHANNELS 6 Xposition Yposition Zposition Xrotation Yrotation Zrotation
									JOINT mixamorig:RightHandThumb2
									{
										OFFSET -3.215179 -1.872803 1.924282
										CHANNELS 6 Xposition Yposition Zposition Xrotation Yrotation Zrotation
										JOINT mixamorig:RightHandThumb3
										{
											OFFSET -2.654831 -1.527969 1.512609
											CHANNELS 6 Xposition Yposition Zposition Xrotation Yrotation Zrotation
											JOINT mixamorig:RightHandThumb4
											{
												OFFSET -2.018814 -1.152008 1.108052
												CHANNELS 6 Xposition Yposition Zposition Xrotation Yrotation Zrotation
												End Site
												{
													OFFSET -188.809540 -114.533607 132.431396
												}
											}
										}
									}
								}
								JOINT mixamorig:RightHandIndex1
								{
									OFFSET -9.108284 -0.517868 2.259835
									CHANNELS 6 Xposition Yposition Zposition Xrotation Yrotation Zrotation
									JOINT mixamorig:RightHandIndex2
									{
										OFFSET -3.699989 0.000000 0.001215
										CHANNELS 6 Xposition Yposition Zposition Xrotation Yrotation Zrotation
										JOINT mixamorig:RightHandIndex3
										{
											OFFSET -2.850006 0.000031 -0.000522
											CHANNELS 6 Xposition Yposition Zposition Xrotation Yrotation Zrotation
											JOINT mixamorig:RightHandIndex4
											{
												OFFSET -2.772186 -0.000015 -0.000020
												CHANNELS 6 Xposition Yposition Zposition Xrotation Yrotation Zrotation
												End Site
												{
													OFFSET -277.218445 0.000000 -0.050231
												}
											}
										}
									}
								}
								JOINT mixamorig:RightHandMiddle1
								{
									OFFSET -9.532516 -0.000031 -0.000023
									CHANNELS 6 Xposition Yposition Zposition Xrotation Yrotation Zrotation
									JOINT mixamorig:RightHandMiddle2
									{
										OFFSET -3.700005 -0.000015 0.003713
										CHANNELS 6 Xposition Yposition Zposition Xrotation Yrotation Zrotation
										JOINT mixamorig:RightHandMiddle3
										{
											OFFSET -2.949974 0.000015 -0.002054
											CHANNELS 6 Xposition Yposition Zposition Xrotation Yrotation Zrotation
											JOINT mixamorig:RightHandMiddle4
											{
												OFFSET -2.946640 0.000000 -0.000156
												CHANNELS 6 Xposition Yposition Zposition Xrotation Yrotation Zrotation
												End Site
												{
													OFFSET -294.664337 0.000000 -0.113670
												}
											}
										}
									}
								}
								JOINT mixamorig:RightHandRing1
								{
									OFFSET -9.103600 -0.043076 -1.865134
									CHANNELS 6 Xposition Yposition Zposition Xrotation Yrotation Zrotation
									JOINT mixamorig:RightHandRing2
									{
										OFFSET -3.379288 0.000000 -0.001055
										CHANNELS 6 Xposition Yposition Zposition Xrotation Yrotation Zrotation
										JOINT mixamorig:RightHandRing3
										{
											OFFSET -2.889687 -0.000015 0.000379
											CHANNELS 6 Xposition Yposition Zposition Xrotation Yrotation Zrotation
											JOINT mixamorig:RightHandRing4
											{
												OFFSET -2.638809 -0.000015 0.000941
												CHANNELS 6 Xposition Yposition Zposition Xrotation Yrotation Zrotation
												End Site
												{
													OFFSET -263.880371 0.000000 0.516020
												}
											}
										}
									}
								}
								JOINT mixamorig:RightHandPinky1
								{
									OFFSET -8.076683 -0.486710 -3.806280
									CHANNELS 6 Xposition Yposition Zposition Xrotation Yrotation Zrotation
									JOINT mixamorig:RightHandPinky2
									{
										OFFSET -3.600014 -0.000015 -0.003747
										CHANNELS 6 Xposition Yposition Zposition Xrotation Yrotation Zrotation
										JOINT mixamorig:RightHandPinky3
										{
											OFFSET -2.099983 0.000000 -0.005739
											CHANNELS 6 Xposition Yposition Zposition Xrotation Yrotation Zrotation
											JOINT mixamorig:RightHandPinky4
											{
												OFFSET -2.115768 -0.000031 -0.003680
												CHANNELS 6 Xposition Yposition Zposition Xrotation Yrotation Zrotation
												End Site
												{
													OFFSET -211.577087 0.000000 -0.350686
												}
											}
										}
									}
								}
							}
						}
					}
				}
				JOINT mixamorig:LeftShoulder
				{
					OFFSET 4.570447 11.014725 -2.160855
					CHANNELS 6 Xposition Yposition Zposition Xrotation Yrotation Zrotation
					JOINT mixamorig:LeftArm
					{
						OFFSET 10.592371 -0.524597 -2.232119
						CHANNELS 6 Xposition Yposition Zposition Xrotation Yrotation Zrotation
						JOINT mixamorig:LeftForeArm
						{
							OFFSET 27.841532 -0.000031 0.000026
							CHANNELS 6 Xposition Yposition Zposition Xrotation Yrotation Zrotation
							JOINT mixamorig:LeftHand
							{
								OFFSET 28.328846 -0.000061 0.000022
								CHANNELS 6 Xposition Yposition Zposition Xrotation Yrotation Zrotation
								JOINT mixamorig:LeftHandThumb1
								{
									OFFSET 2.466141 -1.576172 2.681732
									CHANNELS 6 Xposition Yposition Zposition Xrotation Yrotation Zrotation
									JOINT mixamorig:LeftHandThumb2
									{
										OFFSET 3.217812 -1.872070 1.916482
										CHANNELS 6 Xposition Yposition Zposition Xrotation Yrotation Zrotation
										JOINT mixamorig:LeftHandThumb3
										{
											OFFSET 2.656029 -1.528778 1.514513
											CHANNELS 6 Xposition Yposition Zposition Xrotation Yrotation Zrotation
											JOINT mixamorig:LeftHandThumb4
											{
												OFFSET 2.020889 -1.154053 1.115139
												CHANNELS 6 Xposition Yposition Zposition Xrotation Yrotation Zrotation
												End Site
												{
													OFFSET 190.885437 -115.081749 130.048782
												}
											}
										}
									}
								}
								JOINT mixamorig:LeftHandIndex1
								{
									OFFSET 9.109314 -0.518021 2.259871
									CHANNELS 6 Xposition Yposition Zposition Xrotation Yrotation Zrotation
									JOINT mixamorig:LeftHandIndex2
									{
										OFFSET 3.699989 0.000000 -0.000322
										CHANNELS 6 Xposition Yposition Zposition Xrotation Yrotation Zrotation
										JOINT mixamorig:LeftHandIndex3
										{
											OFFSET 2.850006 0.000000 0.000352
											CHANNELS 6 Xposition Yposition Zposition Xrotation Yrotation Zrotation
											JOINT mixamorig:LeftHandIndex4
											{
												OFFSET 2.774864 -0.000031 -0.000027
												CHANNELS 6 Xposition Yposition Zposition Xrotation Yrotation Zrotation
												End Site
												{
													OFFSET 277.486267 0.000000 -0.009857
												}
											}
										}
									}
								}
								JOINT mixamorig:LeftHandMiddle1
								{
									OFFSET 9.533394 0.000061 0.000044
									CHANNELS 6 Xposition Yposition Zposition Xrotation Yrotation Zrotation
									JOINT mixamorig:LeftHandMiddle2
									{
										OFFSET 3.699989 -0.000015 -0.000231
										CHANNELS 6 Xposition Yposition Zposition Xrotation Yrotation Zrotation
										JOINT mixamorig:LeftHandMiddle3
										{
											OFFSET 2.949997 -0.000015 -0.000059
											CHANNELS 6 Xposition Yposition Zposition Xrotation Yrotation Zrotation
											JOINT mixamorig:LeftHandMiddle4
											{
												OFFSET 2.952896 0.000031 0.000063
												CHANNELS 6 Xposition Yposition Zposition Xrotation Yrotation Zrotation
												End Site
												{
													OFFSET 295.289337 0.000000 0.022810
												}
											}
										}
									}
								}
								JOINT mixamorig:LeftHandRing1
								{
									OFFSET 9.104523 -0.042999 -1.865074
									CHANNELS 6 Xposition Yposition Zposition Xrotation Yrotation Zrotation
									JOINT mixamorig:LeftHandRing2
									{
										OFFSET 3.150009 -0.000031 0.000043
										CHANNELS 6 Xposition Yposition Zposition Xrotation Yrotation Zrotation
										JOINT mixamorig:LeftHandRing3
										{
											OFFSET 2.949982 -0.000015 0.000040
											CHANNELS 6 Xposition Yposition Zposition Xrotation Yrotation Zrotation
											JOINT mixamorig:LeftHandRing4
											{
												OFFSET 2.644348 0.000000 0.000057
												CHANNELS 6 Xposition Yposition Zposition Xrotation Yrotation Zrotation
												End Site
												{
													OFFSET 264.434631 0.000000 0.012105
												}
											}
										}
									}
								}
								JOINT mixamorig:LeftHandPinky1
								{
									OFFSET 8.077789 -0.486847 -3.806259
									CHANNELS 6 Xposition Yposition Zposition Xrotation Yrotation Zrotation
									JOINT mixamorig:LeftHandPinky2
									{
										OFFSET 3.599953 0.000031 0.014727
										CHANNELS 6 Xposition Yposition Zposition Xrotation Yrotation Zrotation
										JOINT mixamorig:LeftHandPinky3
										{
											OFFSET 2.100021 0.000015 0.007705
											CHANNELS 6 Xposition Yposition Zposition Xrotation Yrotation Zrotation
											JOINT mixamorig:LeftHandPinky4
											{
												OFFSET 2.125504 0.000031 0.007517
												CHANNELS 6 Xposition Yposition Zposition Xrotation Yrotation Zrotation
												End Site
												{
													OFFSET 212.550781 0.000000 0.625752
												}
											}
										}
									}
								}
							}
						}
					}
				}
			}
		}
	}
	JOINT mixamorig:RightUpLeg
	{
		OFFSET -8.207787 -6.751648 -1.599560
		CHANNELS 6 Xposition Yposition Zposition Xrotation Yrotation Zrotation
		JOINT mixamorig:RightLeg
		{
			OFFSET -0.000002 -44.370117 0.345942
			CHANNELS 6 Xposition Yposition Zposition Xrotation Yrotation Zrotation
			JOINT mixamorig:RightFoot
			{
				OFFSET 0.000003 -44.423679 -3.043532
				CHANNELS 6 Xposition Yposition Zposition Xrotation Yrotation Zrotation
				JOINT mixamorig:RightToeBase
				{
					OFFSET -0.000002 -8.728671 10.710558
					CHANNELS 6 Xposition Yposition Zposition Xrotation Yrotation Zrotation
					JOINT mixamorig:RightToe_End
					{
						OFFSET -0.000001 -0.000679 9.278119
						CHANNELS 6 Xposition Yposition Zposition Xrotation Yrotation Zrotation
						End Site
						{
							OFFSET 0.000000 -0.067690 927.812134
						}
					}
				}
			}
		}
	}
	JOINT mixamorig:LeftUpLeg
	{
		OFFSET 8.207793 -6.751686 -1.599556
		CHANNELS 6 Xposition Yposition Zposition Xrotation Yrotation Zrotation
		JOINT mixamorig:LeftLeg
		{
			OFFSET -0.000004 -44.370014 0.346954
			CHANNELS 6 Xposition Yposition Zposition Xrotation Yrotation Zrotation
			JOINT mixamorig:LeftFoot
			{
				OFFSET -0.000001 -44.423672 -3.044401
				CHANNELS 6 Xposition Yposition Zposition Xrotation Yrotation Zrotation
				JOINT mixamorig:LeftToeBase
				{
					OFFSET -0.000002 -8.728669 10.710558
					CHANNELS 6 Xposition Yposition Zposition Xrotation Yrotation Zrotation
					JOINT mixamorig:LeftToe_End
					{
						OFFSET -0.000003 -0.000679 9.278133
						CHANNELS 6 Xposition Yposition Zposition Xrotation Yrotation Zrotation
						End Site
						{
							OFFSET 0.000000 -0.068021 927.813477
						}
					}
				}
			}
		}
	}
}
MOTION
Frames: 3
Frame Time: 0.033333
0.000006 104.270477 1.554256 0.000010 0.000003 -0.000113 -0.000005 10.181587 0.131522 0.000001 -0.000003 0.000084 -0.000000 9.893967 -1.470711 0.000001 0.000000 -0.000000 -0.000000 9.220802 -1.370642 0.000000 -0.000000 -0.000000 0.000001 16.740433 -2.049030 0.000000 -0.000000 -0.000000 0.000000 9.617859 1.685014 0.000000 0.000000 0.000000 0.000002 22.037384 7.501101 0.000000 -0.000000 0.000000 -4.569968 11.014880 -2.160881 0.000008 0.000001 -0.000038 -10.592868 -0.524776 -2.231893 76.429004 32.632984 -25.957584 -27.841515 0.000012 0.000560 -49.756176 107.520920 64.641067 -28.328814 0.000007 0.000028 -0.000319 -0.000046 0.000007 -2.464413 -1.573771 2.682339 -46.807105 -164.586385 -7.012579 -3.215268 -1.872549 1.924645 154.046461 32.338893 8.871888 -2.654960 -1.527902 1.513088 147.932048 26.818881 -36.343846 -2.018835 -1.152018 1.108060 -0.000001 -0.000004 0.000005 -9.108397 -0.517563 2.260132 99.687499 16.204013 -19.208266 -3.700050 0.000315 0.001503 97.528613 13.329392 -15.159559 -2.850077 0.000372 -0.000256 97.571493 10.392351 -11.854246 -2.772183 0.000002 -0.000025 0.000001 -0.000001 -0.000001 -9.532581 0.000265 0.000244 95.626077 15.350165 -17.070316 -3.700060 0.000326 0.003982 96.292895 11.971285 -13.246721 -2.950066 0.000341 -0.001794 98.062276 10.883191 -12.513081 -2.946625 0.000004 -0.000159 0.000001 -0.000001 0.000000 -9.103704 -0.042756 -1.864871 94.626657 17.454868 -18.850593 -3.379347 0.000292 -0.000804 97.681206 11.998096 -13.729888 -2.889751 0.000341 0.000679 102.146961 8.493109 -10.562988 -2.638812 -0.000000 0.000943 -0.000000 0.000001 0.000001 -8.076759 -0.486396 -3.806051 79.493819 19.179598 -15.866507 -3.600071 0.000267 -0.003537 84.518967 11.172904 -9.823248 -2.100015 0.000303 -0.005492 86.853259 6.866480 -6.288842 -2.115766 -0.000045 -0.003678 -0.000003 0.000001 -0.000001 4.570446 11.014691 -2.160851 -0.000018 0.000010 -0.000021 10.592398 -0.524474 -2.232362 73.675891 -12.288601 9.221344 27.841822 0.000067 -0.000223 98.529556 -72.846556 81.180828 28.328846 -0.000029 0.000025 0.000021 -0.000089 0.000000 2.465987 -1.576156 2.681909 -40.617878 164.616001 -8.552978 3.217841 -1.871797 1.916385 157.100539 -27.014336 22.867221 2.656118 -1.528673 1.514453 133.889494 -29.472471 49.087402 2.020883 -1.154086 1.115149 -0.000001 0.000002 0.000003 9.109379 -0.517873 2.259726 77.960209 -13.894399 11.252603 3.700033 0.000142 -0.000470 76.733426 -12.239348 9.716368 2.850035 0.000175 0.000204 75.869933 -10.864802 8.477636 2.774878 -0.000030 -0.000026 0.000001 -0.000000 0.000000 9.533458 0.000195 -0.000079 79.327770 -12.599212 10.452676 3.700060 0.000161 -0.000372 81.266458 -11.626310 9.983398 2.950070 0.000159 -0.000201 82.397367 -15.178682 13.308118 2.952874 -0.000030 0.000062 0.000000 0.000000 -0.000000 9.104580 -0.042868 -1.865230 77.763964 -12.201659 9.853700 3.150042 0.000180 -0.000082 83.375341 -11.902722 10.609847 2.950019 0.000176 -0.000070 87.475592 -13.768253 13.181679 2.644326 0.000013 0.000058 0.000001 -0.000001 -0.000000 8.077832 -0.486750 -3.806392 68.263766 -14.323028 10.134165 3.599996 0.000143 0.014553 69.051846 -13.194833 9.455105 2.100024 0.000155 0.007538 74.604012 -13.103398 10.377067 2.125508 -0.000017 0.007517 -0.000002 0.000002 0.000001 -8.207786 -6.751667 -1.599560 -0.077001 -0.000003 0.000080 -0.000002 -44.370110 0.345938 0.153719 -0.000000 -0.000000 0.000000 -44.423679 -3.043532 -0.076700 0.000000 -0.000002 -0.000006 -8.728667 10.710559 -0.000009 -0.000000 -0.000000 -0.000001 -0.000679 9.278123 0.000000 -0.000000 -0.000000 8.207792 -6.751710 -1.599556 -0.074518 -0.000003 0.000081 -0.000002 -44.370014 0.346960 0.148822 0.000002 0.000000 -0.000001 -44.423664 -3.044403 -0.074314 0.000000 -0.000002 -0.000004 -8.728671 10.710558 0.000007 -0.000000 -0.000000 0.000000 -0.000680 9.278137 -0.000000 0.000000 -0.000001 
0.000006 104.270477 1.554256 0.000010 0.000003 -0.000113 -0.000005 10.181587 0.131522 0.000001 -0.000003 0.000084 -0.000000 9.893967 -1.470711 0.000001 0.000000 -0.000000 -0.000000 9.220802 -1.370642 0.000000 -0.000000 -0.000000 0.000001 16.740433 -2.049030 0.000000 -0.000000 -0.000000 0.000000 9.617859 1.685014 0.000000 0.000000 0.000000 0.000002 22.037384 7.501101 0.000000 -0.000000 0.000000 -4.569968 11.014880 -2.160881 0.000008 0.000001 -0.000038 -10.592855 -0.524808 -2.231833 76.807287 41.967220 -33.821341 -27.841516 0.000005 0.000574 -46.607606 104.377148 58.068083 -28.328825 0.000021 0.000029 -0.000320 -0.000046 0.000008 -2.464400 -1.573763 2.682302 -49.442746 -163.238051 -13.977659 -3.215258 -1.872529 1.924625 148.865271 32.941118 20.846062 -2.654965 -1.527884 1.513064 146.910020 27.772816 -28.193650 -2.018822 -1.152001 1.108069 -0.000003 -0.000003 0.000000 -9.108347 -0.517550 2.260117 98.444589 14.192994 -16.479725 -3.700057 0.000319 0.001495 97.211747 12.002185 -13.576147 -2.850089 0.000372 -0.000259 96.599891 10.269072 -11.516712 -2.772175 -0.000003 -0.000023 0.000000 0.000000 -0.000001 -9.532569 0.000257 0.000238 95.114168 14.447021 -15.934299 -3.700069 0.000316 0.003976 95.989272 11.295669 -12.429315 -2.950055 0.000340 -0.001813 96.504938 10.966551 -12.270597 -2.946622 0.000001 -0.000152 -0.000001 -0.000004 -0.000001 -9.103685 -0.042766 -1.864866 94.407551 17.450879 -18.775417 -3.379334 0.000313 -0.000787 98.115360 10.741987 -12.390741 -2.889773 0.000343 0.000661 102.730833 8.211171 -10.321284 -2.638796 0.000000 0.000943 0.000001 0.000004 0.000001 -8.076745 -0.486420 -3.806059 79.547873 20.935862 -17.355115 -3.600046 0.000267 -0.003545 82.480313 10.950008 -9.284087 -2.100018 0.000315 -0.005514 85.961182 5.983171 -5.370742 -2.115774 -0.000051 -0.003677 -0.000002 -0.000001 -0.000004 4.570446 11.014691 -2.160851 -0.000018 0.000010 -0.000021 10.592433 -0.524471 -2.232375 73.199595 -25.018665 18.713304 27.841822 0.000044 -0.000166 100.003716 -75.631170 85.537731 28.328838 -0.000028 0.000026 0.000024 -0.000089 0.000000 2.466193 -1.576128 2.681867 -12.054452 165.113526 -70.287598 3.217862 -1.871888 1.916430 162.449807 -19.910322 49.421586 2.656101 -1.528702 1.514508 135.621725 -28.892619 64.008865 2.020891 -1.154077 1.115151 0.000001 0.000005 0.000002 9.109374 -0.517883 2.259730 78.723319 -18.688077 15.363546 3.700026 0.000131 -0.000468 77.020826 -12.380323 9.878975 2.850042 0.000182 0.000198 75.412727 -8.943170 6.918336 2.774895 -0.000045 -0.000025 -0.000001 -0.000000 -0.000000 9.533454 0.000184 -0.000095 78.881199 -17.721962 14.608111 3.700032 0.000163 -0.000381 81.799677 -10.139542 8.786556 2.950042 0.000169 -0.000201 81.638143 -9.507889 8.219758 2.952874 -0.000030 0.000063 0.000001 -0.000001 -0.000000 9.104581 -0.042868 -1.865226 78.679579 -17.119459 14.067873 3.150047 0.000188 -0.000110 84.546151 -11.701903 10.645933 2.950017 0.000165 -0.000096 85.331145 -9.458752 8.722323 2.644311 0.000046 0.000054 -0.000002 -0.000001 -0.000000 8.077843 -0.486747 -3.806401 71.932677 -19.062932 14.339588 3.599999 0.000164 0.014571 72.815260 -16.365067 12.500733 2.100036 0.000166 0.007540 74.196960 -11.674000 9.208385 2.125491 -0.000000 0.007516 -0.000000 0.000005 0.000002 -8.207786 -6.751667 -1.599560 -0.077001 -0.000003 0.000080 -0.000002 -44.370110 0.345938 0.153719 -0.000000 -0.000000 0.000000 -44.423679 -3.043532 -0.076700 0.000000 -0.000002 -0.000006 -8.728667 10.710559 -0.000009 -0.000000 -0.000000 -0.000001 -0.000679 9.278123 0.000000 -0.000000 -0.000000 8.207792 -6.751710 -1.599556 -0.074518 -0.000003 0.000081 -0.000002 -44.370014 0.346960 0.148822 0.000002 0.000000 -0.000001 -44.423664 -3.044403 -0.074314 0.000000 -0.000002 -0.000004 -8.728671 10.710558 0.000007 -0.000000 -0.000000 0.000000 -0.000680 9.278137 -0.000000 0.000000 -0.000001 
0.000006 104.270477 1.554256 0.000010 0.000003 -0.000113 -0.000005 10.181587 0.131522 0.000001 -0.000003 0.000084 -0.000000 9.893967 -1.470711 0.000001 0.000000 -0.000000 -0.000000 9.220802 -1.370642 0.000000 -0.000000 -0.000000 0.000001 16.740433 -2.049030 0.000000 -0.000000 -0.000000 0.000000 9.617859 1.685014 0.000000 0.000000 0.000000 0.000002 22.037384 7.501101 0.000000 -0.000000 0.000000 -4.569968 11.014880 -2.160881 0.000008 0.000001 -0.000038 -10.592851 -0.524808 -2.231828 77.288406 43.108667 -35.055239 -27.841518 -0.000008 0.000554 -44.886104 103.241683 55.086579 -28.328836 0.000002 0.000020 -0.000319 -0.000044 0.000010 -2.464410 -1.573746 2.682302 -50.473609 -164.902063 -16.751676 -3.215253 -1.872534 1.924628 149.436589 32.751358 18.218915 -2.654963 -1.527843 1.513064 146.845570 27.801617 -27.965615 -2.018824 -1.151993 1.108077 -0.000005 -0.000005 0.000004 -9.108364 -0.517535 2.260112 98.787963 14.593391 -17.043183 -3.700068 0.000319 0.001503 97.421836 12.609238 -14.314671 -2.850073 0.000364 -0.000253 96.543816 10.853029 -12.158791 -2.772167 -0.000016 -0.000017 -0.000000 -0.000003 -0.000001 -9.532580 0.000277 0.000236 95.179738 14.508739 -16.019845 -3.700074 0.000316 0.003978 95.909250 11.741266 -12.904438 -2.950054 0.000319 -0.001808 96.699394 11.508006 -12.919460 -2.946632 0.000002 -0.000163 -0.000002 0.000001 -0.000000 -9.103686 -0.042752 -1.864862 94.153577 17.206442 -18.431827 -3.379341 0.000318 -0.000778 98.063259 10.846708 -12.499739 -2.889747 0.000348 0.000665 102.666028 8.569719 -10.756376 -2.638804 -0.000014 0.000939 0.000000 -0.000001 0.000001 -8.076761 -0.486397 -3.806043 78.948586 20.674136 -16.956474 -3.600035 0.000264 -0.003543 82.197106 11.115576 -9.382143 -2.100013 0.000297 -0.005517 85.524255 6.309808 -5.631118 -2.115771 -0.000037 -0.003681 0.000001 0.000002 -0.000005 4.570446 11.014691 -2.160851 -0.000018 0.000010 -0.000021 10.592461 -0.524470 -2.232408 72.504405 -34.629431 25.753332 27.841818 0.000048 -0.000192 101.161665 -77.627115 88.763001 28.328846 -0.000032 0.000024 0.000020 -0.000091 0.000000 2.466217 -1.576119 2.681857 -8.748606 165.851268 -76.472540 3.217853 -1.871901 1.916443 157.429235 -19.667222 57.722045 2.656114 -1.528677 1.514488 136.508953 -28.575010 59.621193 2.020899 -1.154069 1.115153 0.000001 0.000007 0.000002 9.109396 -0.517877 2.259736 79.959857 -18.261452 15.340041 3.700042 0.000139 -0.000470 79.421528 -12.497719 10.406592 2.850023 0.000182 0.000208 77.540132 -9.066146 7.285960 2.774890 -0.000031 -0.000027 -0.000001 -0.000001 -0.000001 9.533468 0.000189 -0.000082 80.160999 -17.451854 14.711171 3.700033 0.000164 -0.000374 83.542318 -10.000133 8.934337 2.950037 0.000166 -0.000211 82.900806 -8.903972 7.869803 2.952879 -0.000013 0.000062 -0.000000 0.000001 0.000001 9.104588 -0.042864 -1.865218 80.542492 -16.509663 14.015943 3.150044 0.000193 -0.000108 85.295457 -11.884965 10.954691 2.950010 0.000180 -0.000084 85.456356 -9.211435 8.512723 2.644318 0.000030 0.000054 -0.000001 -0.000000 -0.000000 8.077852 -0.486733 -3.806410 75.347355 -18.762323 15.009986 3.600008 0.000167 0.014567 74.870608 -16.677853 13.214431 2.100030 0.000169 0.007524 75.264921 -11.613867 9.340087 2.125489 -0.000016 0.007515 0.000001 0.000002 -0.000001 -8.207786 -6.751667 -1.599560 -0.077001 -0.000003 0.000080 -0.000002 -44.370110 0.345938 0.153719 -0.000000 -0.000000 0.000000 -44.423679 -3.043532 -0.076700 0.000000 -0.000002 -0.000006 -8.728667 10.710559 -0.000009 -0.000000 -0.000000 -0.000001 -0.000679 9.278123 0.000000 -0.000000 -0.000000 8.207792 -6.751710 -1.599556 -0.074518 -0.000003 0.000081 -0.000002 -44.370014 0.346960 0.148822 0.000002 0.000000 -0.000001 -44.423664 -3.044403 -0.074314 0.000000 -0.000002 -0.000004 -8.728671 10.710558 0.000007 -0.000000 -0.000000 0.000000 -0.000680 9.278137 -0.000000 0.000000 -0.000001 
